<svg id="Layer_1" data-name="Layer 1" xmlns="http://www.w3.org/2000/svg" viewBox="0 0 1624 1000"><defs><style>.cls-1{fill:#c00;}.cls-2{fill:#fff;}</style></defs><title>gps-logo</title><rect width="1624" height="1000"/><path class="cls-1" d="M380.66,146.47h359a145.54,145.54,0,0,1-4.61,38q-4.63,17.07-18.46,31.69-19.38,20.55-52.61,36.4T586,279a773.2,773.2,0,0,1-98.3,16.19,1089.75,1089.75,0,0,1-112.61,5.57q-81.23,0-148.14-10.1T112.07,262.27Q64.06,244,37.3,218.39t-26.77-56.6q0-30.64,26.31-56.25T111.6,61.83q48.46-18.11,116.76-28.21t152.3-10.1q108.9,0,191.06,17.76t130.14,55L530.19,123.13q-24-21.59-62.3-31t-87.22-9.4q-40.63,0-73.84,5.75t-56.76,16.37q-23.54,10.63-36.92,25.6t-13.38,33.44q0,16.72,11.54,31T245.9,219.6Q269,230.05,303.13,235.8t79.38,5.75q26.76,0,51.69-2.26A287.76,287.76,0,0,0,479,232q19.84-5,32.77-13.06t17.54-19.5H380.66Z" transform="translate(6 0)"/><path class="cls-1" d="M822.77,162.14q0-29.26,28.61-54.51t79.38-44.06q50.75-18.81,121.38-29.43t155.53-10.62q84,0,155.06,10.62T1485,63.58q51.23,18.81,79.84,44.06t28.61,54.51q0,29.26-28.61,54.51T1485,260.7q-51.23,18.81-122.3,29.43t-155.06,10.62q-84.93,0-155.53-10.62T930.76,260.7Q880,241.89,851.38,216.64T822.77,162.14Zm189.22,0q0,15.67,15.69,28.91t42.46,23q26.76,9.75,62.3,15.15a500.31,500.31,0,0,0,75.22,5.4,500.6,500.6,0,0,0,75.22-5.4q35.52-5.4,62.76-15.15t42.92-23q15.68-13.23,15.69-28.91t-15.69-28.91q-15.7-13.23-42.92-23T1282.89,95.1a526.81,526.81,0,0,0-150.45,0q-35.54,5.4-62.3,15.15t-42.46,23Q1012,146.47,1012,162.14Z" transform="translate(6 0)"/><path class="cls-1" d="M306.06,761.85a216.44,216.44,0,0,0-41.94-13.5A198.48,198.48,0,0,0,223.49,744q-24.91,0-40.63,6.31t-15.73,16.49q0,7,7.86,11.58t20.64,7.89A284.41,284.41,0,0,0,224.47,792q16,2.46,31.78,5.26,62.91,11.23,92.07,30t29.16,48.93A58.64,58.64,0,0,1,364.7,913q-12.78,16.49-37.35,28.24t-60.29,18.24Q231.34,966,186.14,966q-93.72,0-173.65-29.82l55-55.42a287,287,0,0,0,57,20.35,241.21,241.21,0,0,0,55.7,6.67q31.45,0,46.85-7.72t15.4-17.54a15,15,0,0,0-3.93-10.35q-3.93-4.38-13.11-8.07a150.68,150.68,0,0,0-23.92-6.84q-14.74-3.16-35.71-7Q140.91,846,117,841a209.47,209.47,0,0,1-42.59-13.5Q55.74,819,44.27,806.22T32.8,773.78a57.41,57.41,0,0,1,12.12-35.6Q57,722.21,79,710.81t53.73-17.71q31.78-6.31,71.1-6.31a569.62,569.62,0,0,1,76.67,5.44,544.31,544.31,0,0,1,76.67,16Z" transform="translate(6 0)"/><path class="cls-1" d="M751.65,912.69H568.17l-29.49,46h-137L589.8,694.15H730L918.1,958.64h-137Zm-34.08-52.27-57.67-88-57.67,88Z" transform="translate(6 0)"/><path class="cls-1" d="M1102.88,694.15V900.41h154v58.23H974.44V694.15Z" transform="translate(6 0)"/><path class="cls-1" d="M1484.26,752.38V958.64H1355.82V752.38h-105.5V694.15h339.44v58.23Z" transform="translate(6 0)"/><rect class="cls-1" x="8" y="330" width="1608" height="336"/><path class="cls-2" d="M91.16,632.45H13.36V375H137.21q50.41,0,77.21,22.54T241.22,461q0,41-26.79,63.51t-77.21,22.54h-46Zm0-139.31H117q42.87,0,42.87-32.1T117,428.95H91.16Z" transform="translate(6 0)"/><path class="cls-2" d="M269,503.72a118.38,118.38,0,0,1,12.31-53.44,134.39,134.39,0,0,1,34.14-43.19q21.83-18.44,52.2-28.85t66.89-10.41q36.12,0,66.69,10.41t52.6,28.85a133.35,133.35,0,0,1,34.34,43.19,122.17,122.17,0,0,1,0,106.87,133.3,133.3,0,0,1-34.34,43.19q-22,18.44-52.6,28.85t-66.69,10.41q-36.53,0-66.89-10.41t-52.2-28.85a134.34,134.34,0,0,1-34.14-43.19A118.36,118.36,0,0,1,269,503.72Zm81.38,0a60.44,60.44,0,0,0,6.75,28.34,72.46,72.46,0,0,0,18.26,22.54,84.93,84.93,0,0,0,26.79,14.85,101.52,101.52,0,0,0,64.7,0,87.56,87.56,0,0,0,27-14.85,71.47,71.47,0,0,0,18.46-22.54,62.88,62.88,0,0,0,0-56.68,71.58,71.58,0,0,0-18.46-22.54,87.78,87.78,0,0,0-27-14.85,101.53,101.53,0,0,0-64.7,0,85.14,85.14,0,0,0-26.79,14.85,72.58,72.58,0,0,0-18.26,22.54A60.45,60.45,0,0,0,350.38,503.72Z" transform="translate(6 0)"/><path class="cls-2" d="M727.49,375V515q0,11.27,1,23a55.89,55.89,0,0,0,6,21.34q5,9.56,15.68,15.54t30.17,6q19.45,0,30-6a39.33,39.33,0,0,0,15.68-15.54A54,54,0,0,0,832.09,538q1-11.78,1-23V375h77.41V524.21q0,60.1-32,87.75t-98.25,27.66q-66.3,0-98.45-27.66t-32.15-87.75V375Z" transform="translate(6 0)"/><path class="cls-2" d="M973.2,632.45V375H1051l143.7,157.41V375h77.41V632.45h-77.41L1051,475V632.45Z" transform="translate(6 0)"/><path class="cls-2" d="M1334.83,375H1450a154.77,154.77,0,0,1,57.36,10.58,158.87,158.87,0,0,1,46.84,28.17,131.28,131.28,0,0,1,31.56,41,110.16,110.16,0,0,1,.2,97.65,130.43,130.43,0,0,1-31.36,41.14A157.22,157.22,0,0,1,1450,632.45H1334.83Zm77.8,200.77h17.86q20.25,0,36.12-5.46a79.25,79.25,0,0,0,26.79-15,64,64,0,0,0,16.67-22.71,71.19,71.19,0,0,0,5.76-28.85,69.45,69.45,0,0,0-6-28.68A65.74,65.74,0,0,0,1493,452.16a79.43,79.43,0,0,0-26.79-15q-15.88-5.46-35.73-5.46h-17.86Z" transform="translate(6 0)"/></svg>